<?xml version="1.0" encoding="utf-8"?>
<!-- Generator: Adobe Illustrator 22.1.0, SVG Export Plug-In . SVG Version: 6.00 Build 0)  -->
<svg version="1.1" id="Layer_1" xmlns="http://www.w3.org/2000/svg" xmlns:xlink="http://www.w3.org/1999/xlink" x="0px" y="0px"
	 viewBox="0 0 970.8 242.9" style="enable-background:new 0 0 970.8 242.9;" xml:space="preserve">
<style type="text/css">
	.st0{fill:url(#SVGID_1_);}
	.st1{fill:url(#SVGID_2_);}
	.st2{fill:url(#SVGID_3_);}
	.st3{fill:url(#SVGID_4_);}
	.st4{fill:url(#SVGID_5_);}
	.st5{fill:url(#SVGID_6_);}
</style>
<title>Artboard 1 copy 2</title>
<path d="M305.4,127.7V71.3h22.7c9.6,0,16.7,2.4,21.2,7.2c4.5,4.8,6.8,11.8,6.8,21.1c0,9.3-2.3,16.3-6.8,21s-11.6,7.1-21.2,7.2
	L305.4,127.7z M319.2,117.2h7.4c5.1,0,8.9-1.4,11.6-4.2s3.9-7.3,3.9-13.4c0-6.2-1.3-10.7-3.9-13.5c-2.6-2.8-6.5-4.2-11.6-4.2h-7.4
	V117.2z"/>
<path d="M399.3,128.9c-5,0.1-10-1-14.6-3.2c-4.1-2.1-7.5-5.5-9.6-9.7c-2.3-4.3-3.4-9.9-3.4-16.5c0-9.7,2.4-17,7.3-21.9
	c4.9-5,11.6-7.5,20.3-7.5c5.1-0.1,10.1,1,14.6,3.2c4.1,2.1,7.5,5.5,9.6,9.6c2.3,4.3,3.4,9.8,3.4,16.5c0,9.7-2.4,17-7.3,22
	C414.8,126.4,408,128.9,399.3,128.9z M399.3,117.7c2.6,0.1,5.1-0.5,7.3-1.8c2.1-1.4,3.8-3.4,4.6-5.8c2.1-6.9,2.1-14.4,0-21.3
	c-0.8-2.4-2.4-4.4-4.6-5.7c-2.2-1.2-4.8-1.8-7.3-1.7c-2.5-0.1-5.1,0.5-7.3,1.8c-2.1,1.4-3.7,3.4-4.5,5.8c-1.2,3.5-1.7,7.1-1.6,10.8
	c-0.1,3.6,0.4,7.2,1.6,10.6c0.8,2.3,2.4,4.3,4.5,5.7C394.2,117.1,396.7,117.7,399.3,117.7L399.3,117.7z"/>
<path d="M456.5,127.7V81.8h-15.8V71.3h45.7v10.6h-16.1v45.9H456.5z"/>
<path d="M534.7,127.7V71.3h13.7v22.9h20.8V71.3h13.7v56.5h-13.7v-22.4h-20.8v22.5L534.7,127.7z"/>
<path d="M629.3,129.5c-8.7,0-15.2-1.8-19.5-5.5s-6.5-9.5-6.5-17.3V71.3h14.3v34.8c0,4.3,0.9,7.6,2.6,9.7c1.8,2.1,4.5,3.1,8.4,3.1
	c3.5,0,6.2-1,8.2-3.1s2.9-5.3,2.9-9.7V71.3h13v35.4c0,5.3-1,9.6-3,12.9c-1.9,3.3-4.8,5.9-8.3,7.5
	C637.6,128.8,633.5,129.6,629.3,129.5z"/>
<path d="M673.3,127.7V71.3h11.7l29,39.1l-4.1,8.5V71.3h12.6v56.5h-10.3l-29.6-38.6l3.2-6.2v44.8H673.3z"/>
<path d="M754.9,127.7V81.8h-15.8V71.3h45.7v10.6h-16.1v45.9H754.9z"/>
<path d="M801.2,127.7V71.3h38.7v10.6h-25v12.3h21.7v10.7h-21.7v12.4h25v10.6L801.2,127.7z"/>
<path d="M859.9,127.7V71.3h27.5c6.4,0,11.4,1.5,15,4.4c3.6,3,5.4,7.5,5.4,13.5c0,2.5-0.5,5-1.5,7.3c-1,2.4-2.5,4.5-4.5,6.2
	c-2.1,1.8-4.7,3-7.4,3.3l-0.8-4.7l17.2,26.3h-17.4l-14.1-24.7l6.1,5.2h-11.6v19.5H859.9z M873.6,98.2h11.5c2.1,0.1,4.2-0.6,5.8-2
	c1.4-1.3,2.1-3.4,2.1-6.4c0.2-2.1-0.5-4.3-1.9-5.9c-1.4-1.4-3.4-2.1-5.4-2h-12.1V98.2z"/>
<path d="M947.4,128.9c-2.6,0-5.2-0.1-7.8-0.4c-2.2-0.3-4.3-0.7-6.4-1.3c-2-0.6-3.9-1.3-5.8-2.2v-13c2.6,2.1,5.6,3.7,8.8,4.8
	c3,1,6.1,1.6,9.3,1.6c2.1,0.1,4.2-0.4,6-1.5c1.4-1.1,2.2-2.8,2.1-4.5c0-1.5-0.7-2.9-1.9-3.7c-1.5-1.1-3.2-1.9-5-2.5
	c-2.1-0.7-4.4-1.5-7-2.4c-1.7-0.5-3.3-1.2-4.8-2c-1.6-0.8-3-1.8-4.2-3c-1.3-1.3-2.3-2.8-3-4.4c-0.8-2.1-1.2-4.2-1.1-6.4
	c0-2.3,0.4-4.6,1.3-6.7c0.9-2.2,2.2-4.2,3.9-5.8c2-1.8,4.3-3.2,6.8-4c3.1-1,6.4-1.5,9.7-1.5c2.1,0,4.1,0.1,6.1,0.4
	c1.7,0.3,3.4,0.7,5.1,1.2c1.7,0.6,3.4,1.3,5,2.1v13.2c-1.4-1.1-2.8-2.1-4.4-3c-1.6-0.9-3.3-1.7-5-2.3c-1.8-0.6-3.6-1-5.5-1
	c-1.6-0.1-3.1,0.1-4.7,0.5c-1.3,0.3-2.4,1-3.3,1.9c-0.8,0.9-1.2,2.1-1.2,3.3c-0.1,1.4,0.4,2.8,1.4,3.7c1.2,1,2.5,1.8,4,2.2
	c1.7,0.6,3.6,1.2,5.7,1.9c2.2,0.6,4.3,1.4,6.4,2.2c1.9,0.8,3.6,1.8,5.1,3.1c1.5,1.2,2.6,2.8,3.4,4.6c0.8,2.1,1.2,4.3,1.2,6.5
	c0,3.2-0.8,6.4-2.4,9.3c-1.6,2.8-4,5.1-6.9,6.6C955.1,128.2,951.3,129.1,947.4,128.9z"/>
<path d="M305.4,166.8v-1c0-0.3,0.2-0.6,0.5-0.7c0.1,0,0.1,0,0.2,0h2.5c0.3,0,0.6,0.2,0.7,0.5c0,0.1,0,0.1,0,0.2v0.7
	c-0.1,0.9,0.2,1.7,0.7,2.4c0.7,0.6,1.5,0.8,2.4,0.7h2.7c0.9,0.1,1.8-0.2,2.4-0.8c0.6-0.7,0.8-1.6,0.8-2.5v-0.8c0-0.8-0.4-1.5-1-2
	c-0.7-0.5-1.5-0.8-2.4-0.9c-0.9-0.1-2-0.3-3.1-0.6c-1.1-0.2-2.1-0.5-3.1-0.9c-1-0.4-1.8-1-2.4-1.9c-0.7-1.1-1-2.3-1-3.6v-1.7
	c-0.3-3.1,2-5.8,5.1-6.1c0.3,0,0.7,0,1,0h4.2c3.1-0.3,5.9,2,6.2,5.1c0,0.3,0,0.7,0,1v0.9c0,0.3-0.2,0.6-0.5,0.7c-0.1,0-0.1,0-0.2,0
	h-2.5c-0.3,0-0.6-0.2-0.7-0.5c0-0.1,0-0.1,0-0.2v-0.5c0.3-1.4-0.7-2.9-2.1-3.1c-0.3-0.1-0.7-0.1-1,0h-2.5c-0.9-0.1-1.7,0.2-2.4,0.8
	c-0.6,0.7-0.8,1.7-0.7,2.6v1.2c0,1.2,0.8,2,2.5,2.4c0.8,0.2,1.6,0.3,2.5,0.5c0.9,0.1,1.8,0.3,2.7,0.6c0.9,0.2,1.7,0.6,2.5,1
	c0.8,0.5,1.4,1.2,1.8,2c0.5,1,0.7,2.1,0.7,3.2v1.5c0.3,3.1-2,5.8-5.1,6.1c-0.3,0-0.7,0-1,0h-4.4c-1.7,0.1-3.3-0.5-4.5-1.6
	C305.9,170.1,305.3,168.5,305.4,166.8z"/>
<path d="M344.5,172.9h-2.8c-0.4,0-0.5-0.2-0.4-0.7l6.8-23.9c0.1-0.4,0.5-0.7,1-0.7h3.9c0.4-0.1,0.8,0.2,0.9,0.7l6.8,23.9
	c0.1,0.4,0,0.7-0.4,0.7h-2.8c-0.2,0-0.3,0-0.5-0.1c-0.1-0.2-0.2-0.3-0.2-0.5l-1.5-5.1h-8.6l-1.5,5.1
	C345.1,172.7,344.8,172.9,344.5,172.9z M350.9,151.5l-3.5,12.6h7.1l-3.5-12.6H350.9z"/>
<path d="M397.6,147.7h4.4c0.3,0,0.6,0.2,0.7,0.5c0,0,0,0.1,0,0.1v23.9c0,0.3-0.2,0.6-0.5,0.7c-0.1,0-0.1,0-0.2,0h-2.4
	c-0.3,0-0.6-0.2-0.7-0.5c0-0.1,0-0.1,0-0.2v-19.8h-0.2l-5.1,14.4c-0.1,0.4-0.5,0.6-0.9,0.6h-2.5c-0.4,0-0.7-0.3-0.8-0.6l-5.2-14.4
	h-0.2v19.9c0,0.2,0,0.4-0.1,0.5c-0.2,0.1-0.3,0.2-0.5,0.1H381c-0.3,0-0.6-0.2-0.7-0.5c0-0.1,0-0.1,0-0.2v-23.9
	c0-0.3,0.2-0.6,0.5-0.7c0.1,0,0.1,0,0.2,0h4.4c0.3,0,0.5,0.2,0.6,0.4l5.4,15.2h0.2l5.4-15.2C397.1,147.8,397.3,147.6,397.6,147.7z"
	/>
<path d="M427.2,172.9h-2.5c-0.3,0-0.6-0.2-0.7-0.5c0-0.1,0-0.1,0-0.2v-23.9c0-0.3,0.2-0.6,0.5-0.7c0.1,0,0.1,0,0.2,0h9.3
	c3.1-0.3,5.8,1.9,6.1,5c0,0.4,0,0.7,0,1.1v4.1c0.3,3.1-2,5.8-5,6.1c-0.4,0-0.7,0-1.1,0h-5.7c-0.3,0-0.5,0.1-0.5,0.4v7.9
	c0,0.3-0.2,0.6-0.5,0.7C427.3,172.9,427.3,172.9,427.2,172.9z M428.3,160.6h5.2c1.9,0,2.8-1,2.8-2.9v-3.7c0-1.9-0.9-2.9-2.8-2.9
	h-5.2c-0.3,0-0.4,0.1-0.4,0.4v8.8C427.9,160.5,428,160.6,428.3,160.6L428.3,160.6z"/>
<path d="M473.9,172.9h-12.7c-0.3,0-0.6-0.2-0.7-0.5c0-0.1,0-0.1,0-0.2v-23.9c0-0.3,0.2-0.6,0.5-0.7c0.1,0,0.1,0,0.2,0h2.5
	c0.3,0,0.6,0.2,0.7,0.5c0,0.1,0,0.1,0,0.2v20.8c0,0.3,0.2,0.4,0.5,0.4h9.1c0.5,0,0.7,0.2,0.7,0.7v2c0.1,0.3-0.1,0.6-0.5,0.7
	C474,172.9,474,172.9,473.9,172.9z"/>
<path d="M497.9,148.4v23.9c0,0.3-0.2,0.6-0.5,0.7c-0.1,0-0.1,0-0.2,0h-2.5c-0.3,0-0.6-0.2-0.7-0.5c0-0.1,0-0.1,0-0.2v-23.9
	c0-0.3,0.2-0.6,0.5-0.7c0.1,0,0.1,0,0.2,0h2.5c0.3,0,0.6,0.2,0.7,0.5C497.9,148.3,497.9,148.3,497.9,148.4z"/>
<path d="M522.6,172.9h-2.4c-0.3,0-0.6-0.2-0.7-0.5c0-0.1,0-0.1,0-0.2v-23.9c0-0.3,0.2-0.6,0.5-0.7c0.1,0,0.1,0,0.2,0h2.2
	c0.4,0,0.7,0.1,0.9,0.4l9.5,17.1h0.2v-16.8c0-0.3,0.2-0.6,0.5-0.7c0.1,0,0.1,0,0.2,0h2.4c0.3,0,0.6,0.2,0.7,0.5c0,0.1,0,0.1,0,0.2
	v23.9c0,0.3-0.2,0.6-0.5,0.7c-0.1,0-0.1,0-0.2,0h-2.1c-0.4,0-0.8-0.2-1-0.6l-9.4-16.8h-0.2v16.8c0,0.3-0.2,0.6-0.5,0.6
	C522.7,172.9,522.7,172.9,522.6,172.9z"/>
<path d="M568,172.9h-4.2c-1.7,0.1-3.3-0.5-4.5-1.6c-1.1-1.2-1.7-2.8-1.6-4.5v-13.1c-0.3-3,1.9-5.8,4.9-6.1c0.4,0,0.8,0,1.2,0h4.2
	c3-0.3,5.8,1.9,6.1,4.9c0,0.4,0,0.8,0,1.2v1.4c0,0.5-0.2,0.7-0.7,0.7H571c-0.5,0-0.7-0.2-0.7-0.7v-1.3c0-1.9-0.9-2.9-2.8-2.9h-3.1
	c-1.9,0-2.8,1-2.8,2.9v12.8c0,1.9,0.9,2.9,2.8,2.9h3.1c1.9,0,2.8-1,2.8-2.9v-3.5c0-0.3-0.1-0.4-0.4-0.4h-3.2c-0.3,0-0.6-0.2-0.7-0.5
	c0-0.1,0-0.1,0-0.2v-2c0-0.3,0.2-0.6,0.5-0.7c0.1,0,0.1,0,0.2,0h6.6c0.4-0.1,0.8,0.2,0.8,0.6c0,0.1,0,0.1,0,0.2v6.6
	c0.3,3.1-1.9,5.8-5,6.1C568.7,173,568.4,173,568,172.9L568,172.9z"/>
<path d="M627.1,172.9h-2.5c-0.5,0-0.7-0.2-0.7-0.7v-20.8c0-0.2-0.1-0.4-0.3-0.4c0,0-0.1,0-0.1,0h-5c-0.5,0-0.7-0.2-0.7-0.7v-2
	c0-0.4,0.2-0.7,0.7-0.7h14.6c0.5,0,0.7,0.2,0.7,0.7v2c0,0.5-0.2,0.7-0.7,0.7h-5c-0.3,0-0.4,0.1-0.4,0.4v20.8c0,0.3-0.2,0.6-0.6,0.6
	C627.2,172.9,627.1,172.9,627.1,172.9z"/>
<path d="M656,172.9h-2.5c-0.3,0-0.6-0.2-0.7-0.5c0-0.1,0-0.1,0-0.2v-23.9c0-0.3,0.2-0.6,0.5-0.7c0.1,0,0.1,0,0.2,0h2.5
	c0.3,0,0.6,0.2,0.7,0.5c0,0.1,0,0.1,0,0.2v9.8c0,0.3,0.2,0.4,0.5,0.4h8.3c0.2,0,0.4-0.1,0.4-0.3c0,0,0-0.1,0-0.1v-9.8
	c0-0.3,0.2-0.6,0.5-0.7c0,0,0.1,0,0.1,0h2.5c0.3,0,0.6,0.2,0.7,0.5c0,0.1,0,0.1,0,0.2v23.9c0,0.3-0.2,0.6-0.5,0.7
	c-0.1,0-0.1,0-0.2,0h-2.5c-0.3,0-0.6-0.2-0.7-0.5c0-0.1,0-0.1,0-0.2v-9.9c0-0.2-0.1-0.4-0.3-0.4c0,0-0.1,0-0.1,0h-8.3
	c-0.3,0-0.5,0.1-0.5,0.4v9.9c0,0.3-0.2,0.6-0.5,0.7C656.2,172.9,656.1,172.9,656,172.9z"/>
<path d="M704.4,172.9h-12.5c-0.3,0-0.6-0.2-0.7-0.5c0-0.1,0-0.1,0-0.2v-23.9c0-0.3,0.2-0.6,0.5-0.7c0,0,0.1,0,0.1,0h12.6
	c0.4,0,0.6,0.2,0.6,0.7v2c0,0.5-0.2,0.7-0.6,0.7h-9c-0.3,0-0.5,0.1-0.5,0.4v6.6c0,0.3,0.2,0.4,0.5,0.4h7.6c0.5,0,0.7,0.2,0.7,0.7v2
	c0,0.4-0.2,0.7-0.7,0.7h-7.6c-0.3,0-0.5,0.1-0.5,0.4v7c0,0.3,0.2,0.4,0.5,0.4h9c0.4,0,0.6,0.2,0.6,0.7v2
	C705,172.7,704.8,172.9,704.4,172.9z"/>
<path d="M753.8,172.9h-2.5c-0.3,0-0.6-0.2-0.7-0.5c0-0.1,0-0.1,0-0.2v-23.9c0-0.3,0.2-0.6,0.5-0.7c0.1,0,0.1,0,0.2,0h9.2
	c3.1-0.3,5.8,2,6.1,5.1c0,0.3,0,0.7,0,1v3.3c0,3-1.3,4.9-3.7,5.7v0.2l4.3,9.2c0.3,0.5,0.1,0.8-0.5,0.8h-2.4c-0.5,0.1-1-0.2-1.2-0.7
	l-4.2-9h-4c-0.3,0-0.5,0.1-0.5,0.4v8.6C754.5,172.6,754.2,172.9,753.8,172.9C753.9,172.9,753.9,172.9,753.8,172.9z M754.9,160.1h5
	c1.9,0,2.9-1,2.9-2.9v-3.3c0.2-1.4-0.8-2.7-2.2-2.9c-0.2,0-0.5,0-0.7,0h-5c-0.3,0-0.4,0.1-0.4,0.4v8.3
	C754.5,160,754.7,160.1,754.9,160.1L754.9,160.1z"/>
<path d="M800.9,172.9h-12.6c-0.3,0-0.6-0.2-0.7-0.5c0-0.1,0-0.1,0-0.2v-23.9c0-0.3,0.2-0.6,0.5-0.7c0.1,0,0.1,0,0.2,0h12.6
	c0.4,0,0.6,0.2,0.6,0.7v2c0,0.5-0.2,0.7-0.6,0.7H792c-0.3,0-0.5,0.1-0.5,0.4v6.6c0,0.3,0.2,0.4,0.5,0.4h7.6c0.5,0,0.7,0.2,0.7,0.7v2
	c0,0.4-0.2,0.7-0.7,0.7H792c-0.3,0-0.5,0.1-0.5,0.4v7c0,0.3,0.2,0.4,0.5,0.4h8.9c0.4,0,0.6,0.2,0.6,0.7v2
	C801.6,172.7,801.3,172.9,800.9,172.9z"/>
<path d="M823.6,172.9h-2.8c-0.4,0-0.5-0.2-0.4-0.7l6.8-23.9c0.1-0.4,0.5-0.7,0.9-0.7h3.9c0.5-0.1,0.9,0.2,1,0.7l6.8,23.9
	c0.1,0.4,0,0.7-0.4,0.7h-2.8c-0.2,0-0.3,0-0.5-0.1c-0.1-0.2-0.2-0.3-0.2-0.5l-1.5-5.1h-8.7l-1.5,5.1
	C824.2,172.7,824,172.9,823.6,172.9z M830.1,151.5l-3.4,12.6h7.1l-3.5-12.6H830.1z"/>
<path d="M872.8,172.9h-12.7c-0.3,0-0.6-0.2-0.7-0.5c0-0.1,0-0.1,0-0.2v-23.9c0-0.3,0.2-0.6,0.5-0.7c0,0,0.1,0,0.1,0h2.5
	c0.3,0,0.6,0.2,0.7,0.5c0,0.1,0,0.1,0,0.2v20.8c0,0.3,0.2,0.4,0.5,0.4h9.1c0.4,0,0.7,0.2,0.7,0.7v2c0.1,0.3-0.1,0.6-0.5,0.7
	C873,172.9,872.9,172.9,872.8,172.9z"/>
<path d="M896.8,148.4v23.9c0,0.3-0.2,0.6-0.5,0.7c-0.1,0-0.1,0-0.2,0h-2.5c-0.3,0-0.6-0.2-0.7-0.5c0-0.1,0-0.1,0-0.2v-23.9
	c0-0.3,0.2-0.6,0.5-0.7c0.1,0,0.1,0,0.2,0h2.5c0.3,0,0.6,0.2,0.7,0.5C896.8,148.2,896.8,148.3,896.8,148.4z"/>
<path d="M925.4,172.9h-2.5c-0.5,0-0.7-0.2-0.7-0.7v-20.8c0-0.2-0.1-0.4-0.3-0.4c0,0-0.1,0-0.1,0h-5c-0.5,0-0.7-0.2-0.7-0.7v-2
	c0-0.4,0.2-0.7,0.7-0.7h14.6c0.5,0,0.7,0.2,0.7,0.7v2c0,0.5-0.2,0.7-0.7,0.7h-4.9c-0.3,0-0.4,0.1-0.4,0.4v20.8
	C926,172.6,925.8,172.9,925.4,172.9C925.4,172.9,925.4,172.9,925.4,172.9z"/>
<path d="M959.6,172.9H957c-0.3,0-0.6-0.2-0.7-0.5c0-0.1,0-0.1,0-0.2v-8.7l-7.3-15.2c-0.1-0.2-0.1-0.4,0-0.5c0.1-0.1,0.3-0.2,0.4-0.2
	h3.1c0.3,0,0.6,0.2,0.8,0.7l4.8,10.8h0.2l4.8-10.8c0.2-0.4,0.4-0.7,0.8-0.7h3.1c0.2,0,0.3,0.1,0.4,0.2c0.1,0.2,0.1,0.4,0,0.5
	l-7.3,15.2v8.7c0,0.3-0.2,0.6-0.5,0.7C959.7,172.9,959.6,172.9,959.6,172.9z"/>
<linearGradient id="SVGID_1_" gradientUnits="userSpaceOnUse" x1="26.575" y1="123.455" x2="215.855" y2="123.455" gradientTransform="matrix(1 0 0 -1 0 244.91)">
	<stop  offset="1.000000e-02" style="stop-color:#FF216D"/>
	<stop  offset="1" style="stop-color:#FF5E46"/>
</linearGradient>
<path class="st0" d="M121.4,26.7l-82.6,0.2c-6.8,0-12.3,5.5-12.3,12.3v82.3v30.3c14.6-8.5,32.7-8.5,47.3-0.1V84.4
	c0-5.6,4.5-10.2,10.2-10.2c0,0,0,0,0,0c13.4,0,35.6,0.1,37.2,0.1c24.4-0.4,47.1,20.3,47.3,47.2c-0.1,26.8-22.9,47.6-47.3,47.2
	c-1.4,0-17.3,0-30.4,0c8.6,14.7,8.6,32.8,0,47.5l30.5,0.1c52.4,0,94.8-42.4,94.8-94.8C216.2,69.1,173.8,26.7,121.4,26.7L121.4,26.7z
	"/>
<linearGradient id="SVGID_2_" gradientUnits="userSpaceOnUse" x1="26.6451" y1="52.435" x2="73.8851" y2="52.435" gradientTransform="matrix(1 0 0 -1 0 244.91)">
	<stop  offset="1.000000e-02" style="stop-color:#FF216D"/>
	<stop  offset="1" style="stop-color:#FF5E46"/>
</linearGradient>
<circle class="st1" cx="50.3" cy="192.5" r="23.6"/>
<linearGradient id="SVGID_3_" gradientUnits="userSpaceOnUse" x1="123.4637" y1="349.8768" x2="-108.2263" y2="115.9168" gradientTransform="matrix(1 0 0 -1 0 244.91)">
	<stop  offset="1.000000e-02" style="stop-color:#FF216D"/>
	<stop  offset="1" style="stop-color:#FF5E46"/>
</linearGradient>
<path class="st2" d="M31,0H2.3C1,0,0,1,0,2.2c0,0,0,0,0,0v30.1c-0.1,1.3,0.9,2.3,2.1,2.4c1.3,0.1,2.3-0.9,2.4-2.1c0-0.1,0-0.2,0-0.3
	V4.6H31c1.3,0.1,2.3-0.9,2.4-2.1c0.1-1.3-0.9-2.3-2.1-2.4C31.2,0,31.1,0,31,0L31,0z"/>
<linearGradient id="SVGID_4_" gradientUnits="userSpaceOnUse" x1="235.5791" y1="239.8717" x2="3.8992" y2="5.9117" gradientTransform="matrix(1 0 0 -1 0 244.91)">
	<stop  offset="1.000000e-02" style="stop-color:#FF216D"/>
	<stop  offset="1" style="stop-color:#FF5E46"/>
</linearGradient>
<path class="st3" d="M0,210.3v30.4c0,1.2,1,2.3,2.2,2.3c0,0,0,0,0,0h29.8c1.3,0.1,2.3-0.9,2.4-2.1c0.1-1.3-0.9-2.3-2.1-2.4
	c-0.1,0-0.2,0-0.3,0H4.6v-28.1c-0.1-1.3-1.2-2.2-2.4-2.1C1,208.2,0.1,209.1,0,210.3L0,210.3z"/>
<linearGradient id="SVGID_5_" gradientUnits="userSpaceOnUse" x1="237.5941" y1="239.1268" x2="5.9141" y2="5.1568" gradientTransform="matrix(1 0 0 -1 0 244.91)">
	<stop  offset="1.000000e-02" style="stop-color:#FF216D"/>
	<stop  offset="1" style="stop-color:#FF5E46"/>
</linearGradient>
<path class="st4" d="M243.2,32.4V2.3c0-1.2-1-2.3-2.2-2.3c0,0,0,0,0,0h-29.9c-1.3,0.1-2.2,1.2-2.1,2.4c0.1,1.1,1,2,2.1,2.1h27.6
	v27.8c-0.1,1.3,0.9,2.3,2.1,2.4c1.3,0.1,2.3-0.9,2.4-2.1C243.2,32.6,243.2,32.5,243.2,32.4L243.2,32.4z"/>
<linearGradient id="SVGID_6_" gradientUnits="userSpaceOnUse" x1="348.8173" y1="128.5724" x2="117.1273" y2="-105.3876" gradientTransform="matrix(1 0 0 -1 0 244.91)">
	<stop  offset="1.000000e-02" style="stop-color:#FF216D"/>
	<stop  offset="1" style="stop-color:#FF5E46"/>
</linearGradient>
<path class="st5" d="M210.7,242.9h30.3c1.2,0,2.3-1,2.3-2.2c0,0,0,0,0,0v-30.4c-0.1-1.3-1.2-2.2-2.4-2.1c-1.1,0.1-2,1-2.1,2.1v28.1
	h-28c-1.3-0.1-2.3,0.9-2.4,2.1c-0.1,1.3,0.9,2.3,2.1,2.4C210.5,242.9,210.6,242.9,210.7,242.9L210.7,242.9z"/>
</svg>
