<?xml version="1.0" encoding="utf-8"?>
<!-- Generator: Adobe Illustrator 22.1.0, SVG Export Plug-In . SVG Version: 6.00 Build 0)  -->
<svg version="1.1" id="Layer_1" xmlns="http://www.w3.org/2000/svg" xmlns:xlink="http://www.w3.org/1999/xlink" x="0px" y="0px"
	 viewBox="0 0 650.8 821.1" style="enable-background:new 0 0 650.8 821.1;" xml:space="preserve">
<style type="text/css">
	.st0{fill:url(#SVGID_1_);}
	.st1{fill:url(#SVGID_2_);}
	.st2{fill:url(#SVGID_3_);}
	.st3{fill:url(#SVGID_4_);}
	.st4{fill:url(#SVGID_5_);}
	.st5{fill:url(#SVGID_6_);}
</style>
<title>Artboard 1 copy</title>
<path d="M1.2,770v-48.1h21.1c8.5,0,14.6,2,18.5,6.1s5.8,10.1,5.8,18c0,7.8-1.9,13.8-5.8,17.9c-3.9,4.1-10,6.1-18.5,6.1L1.2,770z
	 M15.6,759.1h4.9c3.6,0,6.3-1,8.3-3.1c2-2.1,3-5.4,3-10.1c0-4.7-1-8-3-10.1c-2-2.1-4.8-3.1-8.3-3.1h-4.9V759.1z"/>
<path d="M90.4,771c-4.4,0.1-8.7-0.8-12.6-2.7c-3.7-1.8-6.7-4.7-8.6-8.2c-2.1-3.7-3.1-8.5-3.1-14.2c0-8.3,2.2-14.5,6.5-18.8
	c4.3-4.3,10.3-6.4,17.8-6.4c4.4-0.1,8.7,0.8,12.6,2.7c3.6,1.8,6.6,4.6,8.6,8.2c2.1,3.7,3.1,8.4,3.1,14.3c0,8.3-2.2,14.5-6.5,18.8
	C104,768.9,98,771,90.4,771z M90.4,759.5c1.7,0,3.4-0.4,4.9-1.3c1.5-1,2.7-2.5,3.3-4.3c0.9-2.6,1.3-5.4,1.2-8.2
	c0.1-2.8-0.3-5.5-1.2-8.2c-0.6-1.7-1.7-3.2-3.3-4.2c-1.5-0.8-3.2-1.2-4.9-1.2c-1.7,0-3.4,0.4-4.9,1.3c-1.5,1-2.7,2.5-3.3,4.2
	c-0.9,2.6-1.3,5.4-1.2,8.2c-0.1,2.8,0.3,5.5,1.2,8.1c0.6,1.7,1.8,3.2,3.3,4.2C87,759.1,88.7,759.5,90.4,759.5L90.4,759.5z"/>
<path d="M145.6,770v-37.3h-12v-10.8h38.8v10.8H160V770H145.6z"/>
<path d="M227.2,770v-48.1h14.4v18.6h14.3v-18.6h14.4V770h-14.4v-18h-14.3v18H227.2z"/>
<path d="M317.7,771.8c-8,0-13.9-1.5-17.8-4.5c-3.8-3-5.8-7.8-5.8-14.6v-30.9h15.2v30c0,3.1,0.6,5.4,1.7,6.9s3.1,2.2,5.8,2.2
	c2.1,0.1,4.1-0.7,5.6-2.2c1.3-1.5,2-3.8,2-6.9v-30h13.7v30.9c0,4.5-0.9,8.1-2.7,10.9c-1.7,2.8-4.3,4.9-7.3,6.2
	C324.9,771.2,321.3,771.8,317.7,771.8z"/>
<path d="M362,770v-48.1h11.7l22.5,29.4l-4.4,9.5v-39h13.1v48.1h-10.1l-22.6-28.2l2.9-6.6v34.8L362,770z"/>
<path d="M437.9,770v-37.3h-12.1v-10.8h38.8v10.8h-12.3V770H437.9z"/>
<path d="M485.6,770v-48.1h34.1v10.8h-19.6v7.8h16.8v10.8H500v7.9h19.7V770L485.6,770z"/>
<path d="M543.2,770v-48.1h25c5.7,0,10.3,1.3,13.6,3.9c3.4,2.6,5.1,6.6,5,11.9c0,2-0.4,3.9-1.1,5.7c-0.7,2-1.9,3.8-3.4,5.3
	c-1.6,1.6-3.7,2.7-5.9,3.3l-2-5l15.1,23H571l-11.1-20.5l6.3,5.1h-8.5V770H543.2z M557.6,744.4h8.8c1.2,0,2.4-0.5,3.3-1.3
	c1-0.9,1.5-2.5,1.5-4.8c0.1-1.6-0.4-3.1-1.5-4.3c-0.9-0.9-2.1-1.3-3.3-1.3h-8.8V744.4z"/>
<path d="M628.5,771c-2.5,0-4.7-0.1-6.8-0.3c-2-0.2-4-0.5-5.9-0.9c-1.8-0.4-3.5-1-5.1-1.8v-13.4c2.4,1.9,5.2,3.4,8.1,4.3
	c2.4,0.8,4.9,1.2,7.5,1.3c1.3,0.1,2.6-0.2,3.8-0.8c1.1-0.6,1.6-1.8,1.5-3c0-1-0.6-1.9-1.6-2.3c-1.4-0.7-2.8-1.3-4.3-1.7
	c-1.8-0.5-3.9-1.2-6.2-1.9c-1.3-0.4-2.6-1-3.8-1.7c-1.2-0.7-2.3-1.5-3.3-2.6c-1-1.1-1.8-2.4-2.3-3.8c-0.6-1.7-0.9-3.5-0.9-5.3
	c0-2.2,0.4-4.4,1.3-6.4c0.8-2,2.1-3.8,3.8-5.3c1.8-1.6,4-2.8,6.3-3.6c2.9-0.9,5.9-1.4,8.9-1.3c1.8,0,3.6,0.1,5.4,0.3
	c1.6,0.2,3.1,0.5,4.6,1c1.5,0.5,3,1.1,4.4,1.8v13.7c-1.2-1-2.4-2-3.8-2.8c-1.5-0.9-3-1.6-4.5-2.2c-1.4-0.6-3-0.9-4.5-1
	c-1.1-0.1-2.2-0.1-3.3,0.1c-1,0.1-1.9,0.6-2.7,1.2c-0.7,0.7-1.1,1.7-1,2.6c0,1,0.4,1.9,1.2,2.5c1,0.7,2.1,1.2,3.2,1.5
	c1.4,0.4,2.9,0.9,4.6,1.3c1.9,0.5,3.8,1.2,5.6,1.9c1.6,0.7,3,1.6,4.3,2.7c1.2,1.1,2.1,2.4,2.7,3.9c0.7,1.7,1,3.6,0.9,5.4
	c0.1,3-0.7,6-2.3,8.6c-1.5,2.5-3.7,4.5-6.3,5.8C634.9,770.4,631.7,771.1,628.5,771z"/>
<path d="M0,815.1v-1c0-0.3,0.2-0.6,0.5-0.7c0,0,0.1,0,0.1,0h2.5c0.3,0,0.6,0.2,0.6,0.5c0,0,0,0.1,0,0.1v0.7c-0.3,1.4,0.7,2.8,2.1,3
	c0.3,0.1,0.7,0.1,1,0h2.6c0.9,0.1,1.7-0.2,2.4-0.7c0.5-0.7,0.8-1.6,0.7-2.4v-0.9c0-0.8-0.3-1.5-0.9-1.9c-0.7-0.5-1.5-0.8-2.3-0.9
	c-0.9-0.1-1.9-0.3-3-0.6c-1-0.2-2-0.5-3-0.9c-1-0.4-1.8-1-2.3-1.9c-0.7-1.1-1-2.3-0.9-3.5v-1.6c-0.3-3,1.9-5.7,5-6c0.3,0,0.7,0,1,0
	h4.1c3-0.3,5.7,1.9,6,5c0,0.3,0,0.7,0,1v0.8c0,0.3-0.2,0.6-0.5,0.7c-0.1,0-0.1,0-0.2,0H13c-0.3,0-0.6-0.2-0.6-0.5c0-0.1,0-0.1,0-0.2
	v-0.5c0.3-1.4-0.6-2.8-2-3.1c-0.3-0.1-0.7-0.1-1,0H6.8c-0.9-0.1-1.7,0.2-2.4,0.8c-0.5,0.7-0.8,1.6-0.7,2.6v1.2
	c0,1.2,0.8,1.9,2.5,2.3c0.8,0.2,1.6,0.3,2.4,0.5c0.9,0.1,1.8,0.3,2.7,0.6c0.9,0.2,1.7,0.6,2.5,1c0.8,0.5,1.4,1.1,1.8,1.9
	c0.5,1,0.7,2,0.7,3.1v1.5c0.3,3-2,5.7-5,6c-0.3,0-0.7,0-1,0H6c-1.6,0.1-3.2-0.5-4.4-1.6C0.5,818.3-0.1,816.8,0,815.1z"/>
<path d="M38.2,821.1h-2.8c-0.4,0-0.5-0.2-0.4-0.7l6.7-23.4c0.1-0.4,0.5-0.7,0.9-0.7h3.8c0.4-0.1,0.8,0.2,0.9,0.7l6.7,23.4
	c0.1,0.4,0,0.7-0.4,0.7h-2.7c-0.2,0-0.3,0-0.5-0.1c-0.1-0.1-0.2-0.3-0.2-0.5l-1.5-5h-8.5l-1.5,5C38.8,820.9,38.6,821.1,38.2,821.1z
	 M44.5,800.1l-3.4,12.3h7l-3.4-12.3H44.5z"/>
<path d="M90.1,796.5h4.3c0.3,0,0.6,0.2,0.7,0.5c0,0.1,0,0.1,0,0.2v23.4c0,0.3-0.2,0.6-0.5,0.7c-0.1,0-0.1,0-0.2,0H92
	c-0.3,0-0.6-0.2-0.7-0.5c0-0.1,0-0.1,0-0.2v-19.4h-0.2l-5,14c-0.1,0.4-0.5,0.6-0.9,0.6h-2.5c-0.4,0-0.7-0.2-0.8-0.6L77,801h-0.2
	v19.4c0.1,0.3-0.1,0.6-0.4,0.7c-0.1,0-0.2,0-0.3,0h-2.3c-0.3,0-0.6-0.2-0.7-0.5c0-0.1,0-0.1,0-0.2v-23.4c0-0.3,0.2-0.6,0.5-0.7
	c0.1,0,0.1,0,0.2,0h4.3c0.3,0,0.5,0.2,0.6,0.4l5.3,14.8h0.2l5.3-14.8C89.6,796.6,89.8,796.4,90.1,796.5
	C90.1,796.5,90.1,796.5,90.1,796.5z"/>
<path d="M119.1,821.1h-2.4c-0.3,0-0.6-0.2-0.7-0.5c0-0.1,0-0.1,0-0.2v-23.4c0-0.3,0.2-0.6,0.5-0.7c0,0,0.1,0,0.1,0h9.2
	c1.6-0.1,3.2,0.5,4.4,1.6c1.1,1.2,1.7,2.8,1.6,4.4v4c0.3,3-1.9,5.7-4.9,6c-0.4,0-0.7,0-1.1,0h-5.6c-0.3,0-0.5,0.1-0.5,0.4v7.8
	c0,0.3-0.2,0.6-0.6,0.6C119.2,821.1,119.1,821.1,119.1,821.1z M120.2,809h5.1c1.8,0,2.7-1,2.7-2.8v-3.6c0-1.9-0.9-2.8-2.7-2.8h-5.1
	c-0.3,0-0.4,0.1-0.4,0.4v8.6C119.7,808.9,119.9,809,120.2,809z"/>
<path d="M164.7,821.1h-12.4c-0.3,0-0.6-0.2-0.7-0.5c0-0.1,0-0.1,0-0.2v-23.4c0-0.3,0.2-0.6,0.5-0.7c0.1,0,0.1,0,0.2,0h2.4
	c0.3,0,0.6,0.2,0.7,0.5c0,0,0,0.1,0,0.1v20.3c0,0.3,0.2,0.4,0.5,0.4h8.9c0.4,0,0.7,0.2,0.7,0.7v2c0,0.3-0.2,0.6-0.5,0.7
	C164.8,821.1,164.8,821.1,164.7,821.1z"/>
<path d="M188.2,797.1v23.4c0,0.3-0.2,0.6-0.5,0.7c-0.1,0-0.1,0-0.2,0h-2.4c-0.3,0-0.6-0.2-0.7-0.5c0-0.1,0-0.1,0-0.2v-23.4
	c0-0.3,0.2-0.6,0.5-0.7c0,0,0.1,0,0.1,0h2.4c0.3,0,0.6,0.2,0.7,0.5C188.2,797,188.2,797.1,188.2,797.1z"/>
<path d="M212.4,821.1H210c-0.3,0-0.6-0.2-0.7-0.5c0-0.1,0-0.1,0-0.2v-23.4c0-0.3,0.2-0.6,0.5-0.7c0,0,0.1,0,0.1,0h2.2
	c0.3,0,0.7,0.1,0.8,0.4l9.3,16.7h0.2v-16.5c0-0.3,0.2-0.6,0.5-0.7c0.1,0,0.1,0,0.2,0h2.4c0.3,0,0.6,0.2,0.7,0.5c0,0,0,0.1,0,0.1
	v23.4c0,0.3-0.2,0.6-0.5,0.7c-0.1,0-0.1,0-0.2,0h-2.1c-0.4,0-0.8-0.2-1-0.6l-9.2-16.5H213v16.5c0,0.3-0.2,0.6-0.5,0.7
	C212.5,821.1,212.4,821.1,212.4,821.1z"/>
<path d="M256.7,821.1h-4.1c-3,0.3-5.7-1.9-6-4.9c0-0.4,0-0.7,0-1.1v-12.8c-0.3-3,1.8-5.6,4.8-5.9c0.4,0,0.8,0,1.1,0h4.1
	c3-0.3,5.7,1.8,6,4.8c0,0.4,0,0.8,0,1.2v1.4c0,0.5-0.2,0.7-0.7,0.7h-2.4c-0.4,0-0.7-0.2-0.7-0.7v-1.2c0-1.9-0.9-2.8-2.8-2.8h-3
	c-1.8,0-2.8,0.9-2.8,2.8V815c0,1.9,0.9,2.8,2.8,2.8h3c1.8,0,2.8-0.9,2.8-2.8v-3.5c0-0.3-0.1-0.4-0.4-0.4h-3.1
	c-0.3,0-0.6-0.2-0.7-0.5c0-0.1,0-0.1,0-0.2v-2c0-0.3,0.2-0.6,0.5-0.7c0.1,0,0.1,0,0.2,0h6.4c0.4-0.1,0.8,0.2,0.8,0.6
	c0,0.1,0,0.1,0,0.2v6.4c0.3,3-1.9,5.7-4.9,6C257.4,821.2,257,821.2,256.7,821.1L256.7,821.1z"/>
<path d="M314.5,821.1h-2.4c-0.5,0-0.7-0.2-0.7-0.7v-20.4c0-0.2-0.1-0.4-0.3-0.4c0,0-0.1,0-0.1,0h-4.8c-0.5,0-0.7-0.2-0.7-0.7v-2
	c0-0.4,0.2-0.7,0.7-0.7h14.2c0.5,0,0.7,0.2,0.7,0.7v2c0,0.4-0.2,0.7-0.7,0.7h-4.8c-0.3,0-0.4,0.1-0.4,0.4v20.4
	c0,0.3-0.2,0.6-0.5,0.7C314.6,821.1,314.5,821.1,314.5,821.1z"/>
<path d="M342.8,821.1h-2.4c-0.3,0-0.6-0.2-0.7-0.5c0-0.1,0-0.1,0-0.2v-23.4c0-0.3,0.2-0.6,0.5-0.7c0,0,0.1,0,0.1,0h2.4
	c0.3,0,0.6,0.2,0.7,0.5c0,0.1,0,0.1,0,0.2v9.6c0,0.3,0.2,0.4,0.5,0.4h8.1c0.2,0,0.4-0.1,0.4-0.3c0,0,0-0.1,0-0.1v-9.6
	c0-0.3,0.2-0.6,0.5-0.7c0.1,0,0.1,0,0.2,0h2.5c0.3,0,0.6,0.2,0.7,0.5c0,0,0,0.1,0,0.1v23.4c0,0.3-0.2,0.6-0.5,0.7
	c-0.1,0-0.1,0-0.2,0h-2.5c-0.3,0-0.6-0.2-0.7-0.5c0-0.1,0-0.1,0-0.2v-9.7c0-0.2-0.1-0.4-0.3-0.4c0,0-0.1,0-0.1,0H344
	c-0.3,0-0.5,0.1-0.5,0.4v9.7c0,0.3-0.2,0.6-0.5,0.7C342.9,821.1,342.9,821.1,342.8,821.1z"/>
<path d="M390.1,821.1h-12.3c-0.3,0-0.6-0.2-0.7-0.5c0-0.1,0-0.1,0-0.2v-23.4c0-0.3,0.2-0.6,0.5-0.7c0.1,0,0.1,0,0.2,0h12.3
	c0.4,0,0.6,0.2,0.6,0.7v2c0,0.4-0.2,0.7-0.6,0.7h-8.8c-0.3,0-0.5,0.1-0.5,0.4v6.4c0,0.3,0.2,0.4,0.5,0.4h7.4c0.5,0,0.7,0.2,0.7,0.7
	v2c0,0.4-0.2,0.7-0.7,0.7h-7.4c-0.3,0-0.5,0.1-0.5,0.4v6.8c0,0.3,0.2,0.4,0.5,0.4h8.8c0.4,0,0.6,0.2,0.6,0.7v2
	C390.7,820.9,390.5,821.1,390.1,821.1z"/>
<path d="M438.4,821.1H436c-0.3,0-0.6-0.2-0.7-0.5c0-0.1,0-0.1,0-0.2v-23.4c0-0.3,0.2-0.6,0.5-0.7c0,0,0.1,0,0.1,0h9
	c3-0.3,5.7,1.9,6,5c0,0.3,0,0.7,0,1v3.2c0,2.9-1.2,4.8-3.6,5.6v0.2l4.3,9c0.3,0.5,0.1,0.8-0.5,0.8h-2.4c-0.5,0.1-1-0.2-1.2-0.7
	l-4.1-8.8h-3.9c-0.3,0-0.5,0.1-0.5,0.4v8.4c0,0.3-0.2,0.6-0.5,0.6C438.5,821.1,438.5,821.1,438.4,821.1z M439.5,808.6h4.9
	c1.4,0.2,2.6-0.7,2.8-2.1c0-0.2,0-0.5,0-0.7v-3.2c0.2-1.4-0.8-2.6-2.1-2.8c-0.2,0-0.5,0-0.7,0h-4.9c-0.3,0-0.4,0.1-0.4,0.4v8.1
	C439.1,808.5,439.2,808.6,439.5,808.6L439.5,808.6z"/>
<path d="M484.5,821.1h-12.3c-0.3,0-0.6-0.2-0.7-0.5c0-0.1,0-0.1,0-0.2v-23.4c0-0.3,0.2-0.6,0.5-0.7c0.1,0,0.1,0,0.2,0h12.3
	c0.4,0,0.6,0.2,0.6,0.7v2c0,0.4-0.2,0.7-0.6,0.7h-8.8c-0.3,0-0.5,0.1-0.5,0.4v6.4c0,0.3,0.2,0.4,0.5,0.4h7.4c0.5,0,0.7,0.2,0.7,0.7
	v2c0,0.4-0.2,0.7-0.7,0.7h-7.4c-0.3,0-0.5,0.1-0.5,0.4v6.8c0,0.3,0.2,0.4,0.5,0.4h8.8c0.4,0,0.6,0.2,0.6,0.7v2
	C485.1,820.9,484.8,821.1,484.5,821.1z"/>
<path d="M506.6,821.1h-2.8c-0.4,0-0.5-0.2-0.4-0.7l6.7-23.4c0.1-0.4,0.5-0.7,0.9-0.7h3.8c0.4-0.1,0.8,0.2,0.9,0.7l6.7,23.4
	c0.1,0.4,0,0.7-0.4,0.7h-2.7c-0.2,0-0.3,0-0.5-0.1c-0.1-0.1-0.2-0.3-0.2-0.5l-1.5-5h-8.4l-1.5,5C507.3,820.9,507,821.1,506.6,821.1z
	 M512.9,800.1l-3.4,12.3h6.9l-3.4-12.3H512.9z"/>
<path d="M554.8,821.1h-12.4c-0.3,0-0.6-0.2-0.7-0.5c0-0.1,0-0.1,0-0.2v-23.4c0-0.3,0.2-0.6,0.5-0.7c0,0,0.1,0,0.1,0h2.4
	c0.3,0,0.6,0.2,0.7,0.5c0,0.1,0,0.1,0,0.2v20.3c0,0.3,0.2,0.4,0.5,0.4h8.9c0.4,0,0.7,0.2,0.7,0.7v2c0,0.3-0.2,0.6-0.5,0.7
	C554.9,821.1,554.8,821.1,554.8,821.1z"/>
<path d="M578.2,797.1v23.4c0,0.3-0.2,0.6-0.5,0.7c-0.1,0-0.1,0-0.2,0h-2.4c-0.3,0-0.6-0.2-0.7-0.5c0-0.1,0-0.1,0-0.2v-23.4
	c0-0.3,0.2-0.6,0.5-0.7c0.1,0,0.1,0,0.2,0h2.4c0.3,0,0.6,0.2,0.7,0.5C578.2,797,578.2,797.1,578.2,797.1z"/>
<path d="M606.1,821.1h-2.4c-0.5,0-0.7-0.2-0.7-0.7v-20.4c0-0.2-0.1-0.4-0.3-0.4c0,0-0.1,0-0.1,0h-4.8c-0.5,0-0.7-0.2-0.7-0.7v-2
	c0-0.4,0.2-0.7,0.7-0.7h14.2c0.5,0,0.7,0.2,0.7,0.7v2c0,0.4-0.2,0.7-0.7,0.7h-4.8c-0.3,0-0.4,0.1-0.4,0.4v20.4
	c0.1,0.3-0.2,0.6-0.5,0.7C606.3,821.2,606.2,821.2,606.1,821.1z"/>
<path d="M639.6,821.1h-2.5c-0.3,0-0.6-0.2-0.7-0.5c0-0.1,0-0.1,0-0.2V812l-7.2-14.8c-0.1-0.2-0.1-0.3,0-0.5c0.1-0.1,0.3-0.2,0.4-0.2
	h3.1c0.3,0,0.6,0.2,0.8,0.7l4.7,10.6h0.2l4.7-10.6c0.1-0.4,0.4-0.6,0.8-0.7h3.1c0.2,0,0.3,0.1,0.4,0.2c0.1,0.2,0.1,0.3,0,0.5
	l-7.2,14.8v8.5c0,0.3-0.2,0.6-0.5,0.7C639.7,821.2,639.6,821.2,639.6,821.1z"/>
<linearGradient id="SVGID_1_" gradientUnits="userSpaceOnUse" x1="72.4977" y1="500.44" x2="578.3978" y2="500.44" gradientTransform="matrix(1 0 0 -1 0 823.14)">
	<stop  offset="1.000000e-02" style="stop-color:#FF216D"/>
	<stop  offset="1" style="stop-color:#FF5E46"/>
</linearGradient>
<path class="st0" d="M326.1,69.3c-9.3,0-154.3,0.3-220.7,0.5c-18.1,0-32.8,14.8-32.9,32.9l-0.1,220v81
	c39.1-22.7,87.3-22.8,126.4-0.1v-80.8l0-99.1c0-15,12.2-27.2,27.2-27.2c0,0,0.1,0,0.1,0c35.9,0.1,95.1,0.3,99.5,0.2
	c65.1-1.2,126,54.4,126.3,126.1c-0.4,71.6-61.2,127.2-126.3,126c-3.7-0.1-46.3,0-81.1,0.2c23,39.2,23,87.8,0.1,127l81.4,0.2
	c140.2,0,252.3-113.1,252.3-253.4S466.3,69.3,326.1,69.3z"/>
<linearGradient id="SVGID_2_" gradientUnits="userSpaceOnUse" x1="72.7477" y1="310.63" x2="199.0077" y2="310.63" gradientTransform="matrix(1 0 0 -1 0 823.14)">
	<stop  offset="1.000000e-02" style="stop-color:#FF216D"/>
	<stop  offset="1" style="stop-color:#FF5E46"/>
</linearGradient>
<circle class="st1" cx="135.9" cy="512.5" r="63.1"/>
<linearGradient id="SVGID_3_" gradientUnits="userSpaceOnUse" x1="330.5076" y1="1102.9008" x2="-286.9023" y2="479.4306" gradientTransform="matrix(1 0 0 -1 0 823.14)">
	<stop  offset="1.000000e-02" style="stop-color:#FF216D"/>
	<stop  offset="1" style="stop-color:#FF5E46"/>
</linearGradient>
<path class="st2" d="M84.2,0H7.6C4.3,0,1.5,2.7,1.5,6.1v80.2c-0.1,3.3,2.5,6.2,5.8,6.3c3.3,0.1,6.2-2.5,6.3-5.8c0-0.2,0-0.3,0-0.5
	V12.1h70.6c3.3-0.1,6-3,5.8-6.3C89.9,2.7,87.4,0.1,84.2,0L84.2,0z"/>
<linearGradient id="SVGID_4_" gradientUnits="userSpaceOnUse" x1="629.2463" y1="809.7926" x2="11.8363" y2="186.3125" gradientTransform="matrix(1 0 0 -1 0 823.14)">
	<stop  offset="1.000000e-02" style="stop-color:#FF216D"/>
	<stop  offset="1" style="stop-color:#FF5E46"/>
</linearGradient>
<path class="st3" d="M1.5,560.3v81c0,3.3,2.7,6.1,6.1,6.1c0,0,0,0,0,0H87c3.3,0.1,6.2-2.5,6.3-5.8c0.1-3.3-2.5-6.2-5.8-6.3
	c-0.2,0-0.3,0-0.5,0H13.7v-74.9c-0.1-3.3-3-6-6.3-5.8C4.2,554.6,1.7,557.1,1.5,560.3L1.5,560.3z"/>
<linearGradient id="SVGID_5_" gradientUnits="userSpaceOnUse" x1="634.5984" y1="807.8005" x2="17.1884" y2="184.3306" gradientTransform="matrix(1 0 0 -1 0 823.14)">
	<stop  offset="1.000000e-02" style="stop-color:#FF216D"/>
	<stop  offset="1" style="stop-color:#FF5E46"/>
</linearGradient>
<path class="st4" d="M649.7,86.3V6.1c0-3.3-2.7-6.1-6.1-6.1H564c-3.3,0.1-6,3-5.8,6.3c0.1,3.2,2.7,5.7,5.8,5.8h73.5v74.2
	c-0.1,3.3,2.5,6.2,5.8,6.3c3.3,0.1,6.2-2.5,6.3-5.8C649.7,86.6,649.7,86.5,649.7,86.3L649.7,86.3z"/>
<linearGradient id="SVGID_6_" gradientUnits="userSpaceOnUse" x1="931.2357" y1="512.9727" x2="313.8257" y2="-110.5074" gradientTransform="matrix(1 0 0 -1 0 823.14)">
	<stop  offset="1.000000e-02" style="stop-color:#FF216D"/>
	<stop  offset="1" style="stop-color:#FF5E46"/>
</linearGradient>
<path class="st5" d="M562.9,647.3h80.7c3.3,0,6.1-2.7,6.1-6.1v0v-81c-0.1-3.3-3-6-6.3-5.8c-3.2,0.1-5.7,2.7-5.8,5.8v74.9h-74.6
	c-3.3,0.1-6,3-5.8,6.3C557.2,644.7,559.8,647.2,562.9,647.3z"/>
</svg>
